<svg width="30" height="30" viewBox="0 0 30 30" fill="currentcolor"
  xmlns="http://www.w3.org/2000/svg">
  <path
    d="M10 5.01353C11.2266 5.10684 12.32 5.67677 13.0953 6.5385L14.4508 5.18311L15.3346 6.06699L13.8094 7.59219C14.1144 8.21063 14.2857 8.90675 14.2857 9.64288C14.2857 11.0943 14.7951 12.4268 15.6448 13.4714L17.058 12.0581L17.9419 12.942L16.5286 14.3553C17.5732 15.2049 18.9057 15.7143 20.3571 15.7143C20.7666 15.7143 21.1638 15.7673 21.542 15.8669L22.5837 14.0625L23.6663 14.6875L22.7058 16.3513C24.0785 17.1578 25 18.6499 25 20.3571C25 21.0368 24.8539 21.6823 24.5916 22.2641L26.2276 23.2086L25.6026 24.2911L23.9282 23.3244C23.0766 24.3482 21.7929 25 20.3571 25C20.2377 25 20.1187 24.9986 20 24.9959V26.875H18.75V24.9169C16.8299 24.7172 15.0149 24.1638 13.3715 23.3229L12.4162 24.9774L11.3337 24.3524L12.2828 22.7086C11.0489 21.9444 9.93131 21.0104 8.96269 19.9391L7.317 21.5847L6.43306 20.7009L8.15938 18.9746C7.13581 17.6386 6.32669 16.1296 5.78363 14.4991L3.91174 15.0006L3.58822 13.7932L5.43756 13.2977C5.15161 12.1263 5 10.9023 5 9.64288C5 9.21725 5.05726 8.80506 5.16451 8.4135L3.4375 7.41638L4.0625 6.33388L5.6597 7.256C6.32481 6.14846 7.43875 5.34119 8.75 5.08577V3.125H10V5.01353ZM9.64288 6.25C7.76906 6.25 6.25 7.76906 6.25 9.64288C6.25 17.434 12.566 23.75 20.3571 23.75C22.2309 23.75 23.75 22.2309 23.75 20.3571C23.75 18.4833 22.2309 16.9643 20.3571 16.9643C16.3136 16.9643 13.0357 13.6864 13.0357 9.64288C13.0357 7.76906 11.5167 6.25 9.64288 6.25ZM9.375 9.375C9.02981 9.375 8.75 9.65481 8.75 10C8.75 10.3452 9.02981 10.625 9.375 10.625C9.72019 10.625 10 10.3452 10 10C10 9.65481 9.72019 9.375 9.375 9.375ZM7.5 10C7.5 8.96444 8.33944 8.125 9.375 8.125C10.4106 8.125 11.25 8.96444 11.25 10C11.25 11.0356 10.4106 11.875 9.375 11.875C8.33944 11.875 7.5 11.0356 7.5 10ZM14.375 18.75C14.375 18.4048 14.6548 18.125 15 18.125C15.3452 18.125 15.625 18.4048 15.625 18.75C15.625 19.0952 15.3452 19.375 15 19.375C14.6548 19.375 14.375 19.0952 14.375 18.75ZM15 16.875C13.9644 16.875 13.125 17.7144 13.125 18.75C13.125 19.7856 13.9644 20.625 15 20.625C16.0356 20.625 16.875 19.7856 16.875 18.75C16.875 17.7144 16.0356 16.875 15 16.875ZM11.875 15C11.875 15.6904 11.3154 16.25 10.625 16.25C9.93463 16.25 9.375 15.6904 9.375 15C9.375 14.3096 9.93463 13.75 10.625 13.75C11.3154 13.75 11.875 14.3096 11.875 15ZM20 21.25C20.6904 21.25 21.25 20.6904 21.25 20C21.25 19.3096 20.6904 18.75 20 18.75C19.3096 18.75 18.75 19.3096 18.75 20C18.75 20.6904 19.3096 21.25 20 21.25Z"/>
</svg>
