<svg xmlns="http://www.w3.org/2000/svg" enable-background="new 0 0 70 70" viewBox="0 0 70 70"
  id="heart">
  <path d="M48.2053223,23.9418945c0.9160156-1.0605469,1.8632813-2.1572266,2.3291016-3.5058594
	c0.0361328-0.1044922,0.0546875-0.2148438,0.0546875-0.3261719c0-1.6933594-0.8935547-3.0742188-2.2763672-3.5205078
	c-1.15625-0.3701172-2.8886719-0.0761719-4.2861328,1.8662109c-0.0234375,0.0341797-0.0458984,0.0693359-0.0664063,0.1064453
	c-0.0302124,0.0567017-2.9377441,5.2850342-6.9020386,4.5111694c0.4603882-2.5731201,0.7672119-8.3421021-0.0940552-10.4535522
	c-0.2773438-0.6708984-0.7851563-1.1582031-1.4697266-1.4101563c-1.9365234-0.7158203-4.8466797,0.7333984-5.171875,0.9013672
	c-0.3730469,0.1914063-0.5869141,0.5957031-0.5351563,1.0117188c0.0039063,0.0344849,0.3306885,2.8086548-0.2481689,5.2157593
	l-2.6219482-3.7929077c-0.1708984-0.2470703-0.4433594-0.4042969-0.7431641-0.4287109
	c-3.453125-0.2597656-5.4277344,2.6289063-5.9912109,4.203125c-0.1181641,0.328125-0.0556641,0.6953125,0.1640625,0.9667969
	c1.069519,1.3198242,3.6977539,5.0200195,4.0698242,7.4459839c-2.8240967,1.6382446-5.197998,4.4481812-4.996582,9.3088989
	C19.864502,46.7749023,33.380127,57.9819336,33.9553223,58.4536133c0.0888672,0.0732422,0.1904297,0.1308594,0.2998047,0.1689453
	c0.03125,0.0117188,1.0830078,0.3652344,2.6572266,0.3652344c3.1669922,0,8.4511719-1.4316406,11.8076172-9.9619141
	c2.9755859-7.5703125,2.4013672-14.0263672-1.7080078-19.1884766c-0.8242188-1.0332031-0.9960938-2.4306641-0.4511719-3.6455078
	C46.8879395,25.4682617,47.5275879,24.7270508,48.2053223,23.9418945z M31.8371582,13.6137695
	c1.0029297-0.4169922,2.3154297-0.7675781,2.9677734-0.5273438c0.1601563,0.0595703,0.2470703,0.1416016,0.3085938,0.2919922
	c0.7750854,1.8995972,0.2260132,9.0249023-0.1616211,9.9827271l-0.7993164,1.6588745
	c-0.6855469-0.4316406-1.5712891-0.5791016-2.6923828-0.4541016c-0.2012329,0.0221558-0.4229126,0.0512085-0.6503906,0.0830688
	V20.722168C31.989502,18.3266602,31.9338379,15.0610352,31.8371582,13.6137695z M22.2844238,18.5151367
	c0.4169922-0.7988281,1.4472656-2.3251953,3.2783203-2.4121094l3.2470703,4.6959839v4.227478
	c-0.8113403,0.1932983-1.6754761,0.458252-2.541626,0.8051758C25.5834351,23.0251465,23.2547607,19.7787476,22.2844238,18.5151367z
	 M45.4475098,31.0834961c3.6318359,4.5625,4.1064453,10.3535156,1.4111328,17.2099609
	c-4.0058594,10.1826172-10.6552734,8.8105469-11.7802734,8.4912109
	c-1.4560547-1.234375-13.2753906-11.5380859-13.6601563-20.8251953c-0.164978-3.9833374,1.8013916-6.3059082,4.2589722-7.6613159
	c0.1876831-0.041748,0.3614502-0.1189575,0.4933472-0.2503052c1.8453369-0.90271,3.8944092-1.3161011,5.5084229-1.4936523
	c1.3085938-0.1435547,1.5869141,0.1943359,1.8388672,0.6884766c0.0518188,0.1018677,0.1235962,0.187439,0.2034302,0.263916
	c0.0084229,0.0080566,0.0114136,0.0192261,0.0202026,0.0270996c4.1875,3.7548828,5.4511719,8.8779297,3.7548828,15.2265625
	c-0.0703125,0.2607422-0.1201172,0.4541016-0.140625,0.5712891c-0.0996094,0.5429688,0.2607422,1.0634766,0.8046875,1.1621094
	c0.0605469,0.0117188,0.1201172,0.0166016,0.1796875,0.0166016c0.4736328,0,0.8955078-0.3378906,0.9824219-0.8212891
	c0.015625-0.0839844,0.0546875-0.2236328,0.1054688-0.4121094c1.8312988-6.8516846,0.5454712-12.4649048-3.8029175-16.7068481
	l0.4658203-0.9664307c0.0036011-0.0065308,0.0093994-0.0115356,0.0128784-0.0181274
	c0.0888672-0.1566162,0.1943359-0.3625488,0.3101196-0.6046753c1.0938721,0.2640381,2.1362305,0.2111206,3.105896-0.0557251
	v1.8430176c0,0.5527344,0.4472656,1,1,1s1-0.4472656,1-1v-2.7294922c1.9225464-1.182251,3.394043-3.0662231,4.1650391-4.4619141
	c0.6386719-0.8642578,1.4101563-1.2783203,2.0146484-1.0830078c0.5029297,0.1621094,0.8398438,0.7226563,0.8847656,1.4501953
	c-0.3701172,0.9277344-1.1425781,1.8232422-1.8925781,2.6914063c-0.7402344,0.8574219-1.5068359,1.7451172-1.9541016,2.7353516
	C43.8830566,27.2739258,44.1555176,29.4633789,45.4475098,31.0834961z"></path>
</svg>
