<svg xmlns="http://www.w3.org/2000/svg" viewBox="0 0 48 48" id="mouse">
  <path
    d="M8.1 17.8c-.7 0-1.3.6-1.3 1.3 0 .7.6 1.3 1.3 1.3.7 0 1.3-.6 1.3-1.3.1-.7-.5-1.3-1.3-1.3z"></path>
  <path
    d="M42.8 29h-.7v-2.5c0-8.1-6.6-14.6-14.6-14.6h-8c.4-1.5.2-3.1-.5-4.6-.2-.5-.6-.8-1.1-1-.5-.2-1-.1-1.5.1-.9.4-1.7 1.1-2.3 1.9-.6-.8-1.4-1.4-2.4-1.9-.5-.2-1-.3-1.5-.1-.5.2-.9.5-1.1 1-.8 1.7-.9 3.6-.2 5.3 0 .2.1.3.1.5-1.6 1.2-6.6 5.5-8.4 10.4-.3.8-.2 1.7.3 2.4.6.7 1.4 1.1 2.2 1.1h6.4l1.3 2h-2c-3.5 0-4.6 3.1-4.7 4.8L4 34.9h15.8c.7 0 1.3-.4 1.6-1 .4-.8.4-1.9-.1-2.7l-.1-.2H23c-.6.9-.9 2-.9 2.8l-.1 1.1h15.8c.7 0 1.3-.4 1.6-1 .4-.8.4-1.9-.1-2.7l-.1-.2H42.8c1.5 0 2.7 1.2 2.7 2.7s-1.2 2.7-2.7 2.7H9.9c-2.9 0-5.3 2.4-5.3 5.3h2c0-1.8 1.5-3.3 3.3-3.3h32.9c2.6 0 4.7-2.1 4.7-4.7S45.4 29 42.8 29zM17.2 8.2c.5 1.2.6 2.5.2 3.6h-1.8l-.3-1.5c0-.1-.1-.2-.1-.2.4-.8 1.1-1.4 2-1.9zm-6.3 0c1.2.6 2 1.6 2.5 2.8.4 1.2.4 2.5-.2 3.7-1.2-.6-2-1.6-2.5-2.8-.4-1.2-.3-2.5.2-3.7zM40.1 29H38l-.4-.7-1.7 1.1 1.8 2.9c.1.2.1.5 0 .6H24.3c.3-.8 1-1.8 2.5-1.8h5.4v-2H20l-.4-.7-1.7 1.1 1.8 2.9c.1.2.1.5 0 .6H6.3c.2-1 .9-2 2.5-2h5.5v-2h-1l-2.6-4H3.1c-.3 0-.4-.2-.5-.3-.1-.1-.2-.3-.1-.5 1.5-4.2 5.9-8.1 7.6-9.4.6.8 1.4 1.4 2.3 1.8l1.7.8.8-1.7c.3-.6.5-1.2.6-1.8h11.9c7 0 12.6 5.7 12.6 12.6l.1 2.5z">
  </path>
</svg>
