<svg xmlns="http://www.w3.org/2000/svg" viewBox="0 0 32 32" id="mushroom">
  <path
    d="M12 2.1c-.682 0-1.362.075-2.03.212a2.28 2.28 0 0 0-.27-.011c-.6.1-1.2.3-1.8.6a.569.569 0 0 0-.234.193 9.5 9.5 0 0 0-2.244 1.478.506.506 0 0 0-.223.127c-.46.46-.859.967-1.232 1.485-.03.04-.057.082-.086.123-.163.23-.335.46-.48.693-.017.033-.015.063-.026.096A10.205 10.205 0 0 0 2.1 13.199c0 .5.3.901.7 1.201.4.3.9.3 1.4.2l3.2-.9c.31-.093.621-.17.934-.243L7.199 24.699C7 26 7.5 27.4 8.4 28.4c.9 1 2.2 1.6 3.6 1.6s2.7-.6 3.6-1.6c.9-1 1.3-2.3 1.2-3.7l-.63-6.255L17.7 18c.175-.048.353-.087.53-.127L17.4 25.9c-.1 1.1.2 2.1.9 2.9.7.8 1.7 1.2 2.7 1.2 1 0 2-.4 2.9-1.2.7-.8 1-1.9.9-2.9l-.827-8.002c.142.034.286.063.427.102l2.4.7c.3.1.8 0 1.1-.2.3-.2.6-.6.6-1 .2-2.1-.5-4.2-1.9-5.8-1.258-1.439-3.083-2.304-4.963-2.466A9.822 9.822 0 0 0 19.5 5.4c-1.9-2.1-4.7-3.3-7.5-3.3zm.1.9c2.117 0 4.097.74 5.68 2.037-.412.36-.68.883-.68 1.463 0 1.1.9 2 2 2 .386 0 .766-.136 1.1-.357a9.06 9.06 0 0 1 .644 1.884c-.687.13-1.244.76-1.244 1.473 0 .766.643 1.434 1.4 1.49V13c0 .2-.1.4-.3.5-.2.1-.4.2-.6.1l-3.1-.9c-.069-.02-.138-.033-.207-.052.191-.318.307-.681.307-1.048 0-1.1-.9-2-2-2s-2 .9-2 2c0 .16.018.314.048.46a18.112 18.112 0 0 0-5.32.485C7.497 11.903 6.818 11.482 6 11.4a2.006 2.006 0 0 0-1.992 2.198L4 13.6c-.2 0-.4 0-.6-.1-.2-.1-.3-.3-.3-.5-.202-1.679.105-3.354.865-4.88.329.232.726.38 1.135.38 1.1 0 2-.9 2-2 0-.596-.278-1.09-.688-1.453a8.964 8.964 0 0 1 1.34-.92C7.999 4.632 8.521 5 9.1 5c.8 0 1.5-.7 1.5-1.6 0-.076-.03-.169-.045-.255A9.034 9.034 0 0 1 12.1 3zm-2.5.4v.1c0 .3-.2.5-.5.5a.55.55 0 0 1-.49-.29l.154-.06c.253-.083.501-.166.836-.25zm3.5 1.1c-1.1 0-2 .9-2 2s.9 2 2 2 2-.9 2-2-.9-2-2-2zm0 1c.5 0 1 .4 1 1s-.4 1-1 1-1-.4-1-1 .4-1 1-1zm-7.4.2c.2.2.4.5.4.8 0 .6-.4 1-1 1a.889.889 0 0 1-.637-.256c.226-.351.477-.693.756-1.021.154-.174.306-.35.48-.524zm12.7.1c.5.4.9 1 1.3 1.6-.2.1-.4.2-.6.2-.6 0-1-.4-1-1 0-.3.1-.6.3-.8zM9.1 8c-.8 0-1.5.7-1.5 1.5S8.3 11 9.1 11s1.5-.7 1.5-1.5S9.9 8 9.1 8zm0 1c.3 0 .5.2.5.5s-.2.5-.5.5-.5-.2-.5-.5.2-.5.5-.5zm12.763 1.152c1.535.192 3.008.947 4.037 2.149 1.2 1.4 1.8 3.3 1.6 5.1-.1.2-.1.298-.2.298H27L24.6 17c-1.2-.3-2.4-.5-3.6-.5-1.2 0-2.4.2-3.4.5l-1.532.445-.402-3.988.121.031.014.012.011-.006c.264.065.527.127.788.205l3.2.9c.2.1.3.1.5.1.3 0 .6-.099 1-.299.4-.3.6-.7.7-1.2a10.367 10.367 0 0 0-.137-3.048zM15.1 10.5c.6 0 1 .4 1 1 0 .386-.189.677-.471.877-.414-.082-.829-.15-1.246-.203-.184-.192-.283-.386-.283-.674 0-.6.4-1 1-1zm5.8.5c.1.4.1.7 0 1-.2-.1-.4-.3-.4-.5s.2-.4.4-.5zM6.1 12.5c.3 0 .5.1.7.3l-.847.25-.85.24c.105-.493.5-.79.997-.79zm5.9.563c.483-.007.966.007 1.45.035.142.013.284.03.427.047a.446.446 0 0 0 .223.054c.175 0 .332.023.492.043.038.006.075.015.113.022l1.096 11.435c.1 1.1-.3 2.2-1 3C14.1 28.5 13.1 29 12 29s-2.1-.5-2.8-1.2c-.8-.8-1.1-1.9-1-3l1.1-11.5c.9-.15 1.8-.225 2.7-.238zm9.05 4.488c.622 0 1.241.049 1.858.14L23.7 26c.1.8-.199 1.5-.699 2.1-1 1.1-3 1.1-4 0-.5-.6-.8-1.3-.7-2.1l.9-8.3c.264-.045.53-.075.796-.1.055-.005.11-.014.164-.018.05-.004.1-.004.149-.008.247-.014.494-.023.742-.023z"></path>
</svg>
