<?xml version="1.0" encoding="iso-8859-1"?>
<!-- Uploaded to: SVG Repo, www.svgrepo.com, Generator: SVG Repo Mixer Tools -->
<svg fill="#000000" height="800px" width="800px" version="1.1" id="Layer_1" xmlns="http://www.w3.org/2000/svg" xmlns:xlink="http://www.w3.org/1999/xlink" 
	 viewBox="0 0 511.999 511.999" xml:space="preserve">
<g>
	<g>
		<g>
			<polygon points="269.335,274.385 269.336,274.385 269.335,274.383 			"/>
			<path d="M269.335,274.385c-0.01-0.233-0.005-0.117,0.001-0.002c6.17-13.238,16.617-28.309,34.051-30.444
				c10.061-1.232,19.738-4.706,28.641-9.262c11.987,11.54,28.235,17.815,46.147,17.815c0.903,0,1.813-0.016,2.724-0.047
				c18.265-0.64,35.532-7.802,47.378-19.646c36.415-36.415,26.563-109.428,26.125-112.518c-0.706-4.991-4.628-8.912-9.618-9.618
				c-3.091-0.437-76.104-10.29-112.518,26.126c-11.844,11.844-19.006,29.112-19.646,47.378c-0.402,11.431,1.741,22.245,6.142,31.798
				c-5.927,2.763-12.046,4.77-18.124,5.514c-13.829,1.693-26.115,8.132-36.166,18.589c-0.29-1.218-0.582-2.419-0.872-3.616
				c-2.745-11.3-5.337-21.974-5.337-43.91c0-9.378,0.475-16.693,1.232-22.883c17.037-0.657,33.264-8.383,45.917-21.958
				c12.462-13.369,19.609-30.643,19.609-47.393c0-51.499-58.594-96.16-61.088-98.036c-4.028-3.03-9.575-3.03-13.602,0
				c-2.495,1.876-61.088,46.537-61.088,98.036c0,16.751,7.146,34.024,19.609,47.393c8.172,8.767,17.836,15.093,28.243,18.657
				c-0.888,7.082-1.461,15.489-1.461,26.183c0,23.922,2.863,36.409,5.719,48.185c-10.163-10.841-22.666-17.52-36.779-19.248
				c-4.218-0.516-8.404-1.615-12.496-3.113c5.189-10.122,7.738-21.8,7.303-34.199c-0.64-18.265-7.802-35.533-19.646-47.377
				c-36.415-36.416-109.428-26.564-112.518-26.126c-4.991,0.706-8.912,4.628-9.618,9.618c-0.437,3.09-10.289,76.103,26.125,112.518
				c11.844,11.844,29.113,19.005,47.378,19.646c0.912,0.032,1.819,0.048,2.723,0.048c16.77,0,32.082-5.504,43.805-15.675
				c7.648,3.485,15.784,6.091,24.195,7.122c18.043,2.209,28.67,16.795,34.741,30.446H128.139c-3.207,0-6.264,1.361-8.409,3.745
				c-2.145,2.384-3.179,5.566-2.843,8.755l5.362,50.908c0,0.002,0,0.006,0,0.008l17.267,164.066
				c0.607,5.759,5.463,10.131,11.253,10.131h203.669c5.791,0,10.647-4.372,11.253-10.131l17.267-164.066c0-0.002,0-0.006,0-0.008
				l5.362-50.908c0.336-3.19-0.697-6.371-2.843-8.755c-2.146-2.384-5.203-3.745-8.409-3.745H269.336
				C269.341,274.498,269.346,274.609,269.335,274.385z M335.234,184.959c0.436-12.419,5.308-24.445,13.032-32.169
				c17.641-17.641,49.117-21.012,70.599-21.012c5.412,0,10.189,0.214,13.951,0.468c1.262,18.704,1.539,62.469-20.543,84.551
				c-7.725,7.725-19.75,12.597-32.169,13.033c-10.665,0.367-20.403-2.39-28.063-7.851c16.669-12.607,27.717-26.019,28.525-27.013
				c3.942-4.848,3.208-11.975-1.641-15.917c-4.85-3.942-11.975-3.208-15.917,1.641c-4.213,5.181-13.322,14.725-24.737,23.316
				C336.052,198.232,334.995,191.786,335.234,184.959z M172.07,207.756c-17.269-11.823-29.688-26.841-29.88-27.078
				c-3.944-4.839-11.064-5.571-15.91-1.63c-4.848,3.942-5.584,11.068-1.641,15.917c0.858,1.056,13.248,16.102,31.659,29.326
				c-7.005,3.916-15.376,5.848-24.407,5.539c-12.419-0.436-24.445-5.308-32.169-13.033c-22.084-22.083-21.805-65.854-20.543-84.55
				c18.708-1.262,62.47-1.538,84.551,20.543c7.725,7.724,12.596,19.75,13.033,32.168
				C177.055,193.307,175.417,201.089,172.07,207.756z M211.869,100.306c0-31.271,31.229-62.063,45.315-74.362
				c16.951,14.726,45.204,45.343,45.204,74.362c0,19.61-16.243,42.107-38.263,46.148c2.763-11.46,5.449-23.903,5.449-47.073
				c0-6.249-5.066-11.315-11.315-11.315c-6.249,0-11.315,5.066-11.315,11.315c0,21.935-2.593,32.608-5.337,43.909
				c-0.043,0.178-0.087,0.356-0.13,0.535C223.987,136.333,211.869,117.245,211.869,100.306z M349.489,439.583h-3.539
				c-6.249,0-11.315,5.066-11.315,11.315c0,6.249,5.066,11.315,11.315,11.315h1.158l-2.858,27.156H160.956l-2.858-27.156h1.157
				c6.249,0,11.315-5.066,11.315-11.315c0-6.249-5.066-11.315-11.315-11.315h-3.539l-9.646-91.651h213.065L349.489,439.583z
				 M361.518,325.302h-217.83l-2.979-28.287h223.789L361.518,325.302z"/>
			<path d="M211.115,462.213h15.558c6.249,0,11.315-5.066,11.315-11.315c0-6.249-5.066-11.315-11.315-11.315h-15.558
				c-6.249,0-11.315,5.066-11.315,11.315C199.8,457.147,204.866,462.213,211.115,462.213z"/>
			<path d="M278.534,462.213h15.558c6.249,0,11.315-5.066,11.315-11.315c0-6.249-5.067-11.315-11.315-11.315h-15.558
				c-6.249,0-11.315,5.066-11.315,11.315C267.219,457.147,272.284,462.213,278.534,462.213z"/>
		</g>
	</g>
</g>
</svg>